<svg xmlns="http://www.w3.org/2000/svg" width="512" height="512" viewBox="0 0 512 512"><rect width="512" height="512" fill="#000" rx="64"/><rect width="448" height="384" x="32" y="64" fill="#010" stroke="#0F0" stroke-width="4" rx="8"/><rect width="448" height="48" x="32" y="64" fill="#020" stroke="#0F0" stroke-width="2"/><circle cx="60" cy="88" r="8" fill="red"/><circle cx="88" cy="88" r="8" fill="#FF0"/><circle cx="116" cy="88" r="8" fill="#0F0"/><rect width="120" height="4" x="60" y="140" fill="#0F0"/><rect width="200" height="4" x="60" y="160" fill="#0A0"/><rect width="160" height="4" x="60" y="180" fill="#0F0"/><rect width="240" height="4" x="60" y="200" fill="#0A0"/><rect width="100" height="4" x="60" y="220" fill="#0F0"/><text x="60" y="280" fill="#0F0" font-family="monospace" font-size="24">$</text><rect width="8" height="20" x="80" y="265" fill="#0F0" opacity=".8"/><text x="60" y="320" fill="#0A0" font-family="monospace" font-size="18">portfolio@terminal:~</text><text x="60" y="350" fill="#0F0" font-family="monospace" font-size="16">{ &quot;skills&quot;: &quot;TypeScript, React&quot; }</text><text x="60" y="380" fill="#0A0" font-family="monospace" font-size="16">git commit -m &quot;success&quot;</text><rect width="452" height="388" x="30" y="62" fill="none" stroke="#0F0" stroke-width="2" opacity=".5" rx="10"/></svg>